<svg width="128" height="128" viewBox="0 0 128 128" fill="none" version="1.1" xmlns="http://www.w3.org/2000/svg">
<g>
<path fill="black" d="M 59.652344 67.875 C 59.648438 71.25 59.636719 74.5625 59.664062 77.875 C 59.667969 78.515625 59.457031 78.679688 58.835938 78.679688 C 43.839844 78.664062 28.84375 78.664062 13.84375 78.679688 C 13.234375 78.679688 13.070312 78.484375 13.074219 77.894531 C 13.089844 68.769531 13.089844 59.648438 13.074219 50.523438 C 13.074219 49.933594 13.234375 49.730469 13.847656 49.730469 C 28.84375 49.746094 43.839844 49.742188 58.839844 49.746094 C 59.601562 49.746094 59.648438 49.796875 59.652344 50.566406 C 59.652344 56.3125 59.652344 62.0625 59.652344 67.875 M 36.421875 53.273438 C 33.628906 51.863281 30.734375 51.660156 27.847656 52.835938 C 23.664062 54.539062 23.441406 59.410156 25.535156 61.757812 C 26.535156 62.878906 27.832031 63.53125 29.203125 64.066406 C 30.808594 64.695312 32.515625 65.050781 34.058594 65.859375 C 36.289062 67.023438 36.964844 69.824219 35.480469 71.875 C 34.472656 73.265625 32.984375 73.695312 31.378906 73.773438 C 29.167969 73.878906 27.1875 73.199219 25.472656 71.808594 C 25.042969 71.460938 24.769531 71.480469 24.453125 71.902344 C 24.226562 72.199219 23.984375 72.492188 23.714844 72.746094 C 23.367188 73.074219 23.425781 73.292969 23.769531 73.597656 C 26.789062 76.292969 32.222656 76.980469 35.800781 75.082031 C 37.953125 73.941406 39.058594 72.097656 39.199219 69.695312 C 39.347656 67.128906 38.390625 65.109375 36.089844 63.8125 C 34.996094 63.191406 33.820312 62.78125 32.628906 62.40625 C 31.316406 61.996094 30.003906 61.582031 28.8125 60.871094 C 27.625 60.15625 27.105469 59.097656 27.207031 57.722656 C 27.296875 56.46875 27.90625 55.5625 29.035156 55.019531 C 30.386719 54.363281 31.800781 54.355469 33.242188 54.65625 C 34.597656 54.941406 35.75 55.628906 36.890625 56.4375 C 37.410156 56.023438 37.785156 55.496094 38.203125 55.011719 C 38.414062 54.773438 38.265625 54.601562 38.078125 54.433594 C 37.597656 53.996094 37.058594 53.644531 36.421875 53.273438 M 44.246094 70.3125 C 44.246094 71.855469 44.269531 73.394531 44.234375 74.9375 C 44.222656 75.527344 44.402344 75.730469 45.015625 75.726562 C 48.453125 75.699219 51.890625 75.714844 55.328125 75.714844 C 56.835938 75.714844 56.808594 75.714844 56.84375 74.199219 C 56.859375 73.601562 56.691406 73.40625 56.082031 73.414062 C 53.375 73.441406 50.664062 73.425781 47.957031 73.425781 C 47.089844 73.425781 47.085938 73.425781 47.085938 72.582031 C 47.082031 70.375 47.082031 68.164062 47.085938 65.957031 C 47.085938 65.042969 47.085938 65.019531 48.027344 65.019531 C 49.839844 65.023438 51.652344 64.984375 53.464844 65.0625 C 55.011719 65.128906 55.003906 65.082031 55.023438 63.554688 C 55.03125 62.902344 54.785156 62.742188 54.179688 62.75 C 52.097656 62.78125 50.015625 62.761719 47.929688 62.761719 C 47.089844 62.761719 47.085938 62.757812 47.085938 61.941406 C 47.082031 59.878906 47.082031 57.816406 47.085938 55.753906 C 47.085938 54.835938 47.085938 54.832031 48 54.832031 C 50.539062 54.832031 53.082031 54.832031 55.625 54.832031 C 55.914062 54.832031 56.25 54.886719 56.308594 54.476562 C 56.402344 53.867188 56.464844 53.25 56.539062 52.652344 C 56.261719 52.476562 56.007812 52.539062 55.761719 52.539062 C 52.242188 52.535156 48.722656 52.535156 45.203125 52.535156 C 44.253906 52.535156 44.246094 52.535156 44.246094 53.5 C 44.246094 59.0625 44.246094 64.625 44.246094 70.3125 Z M 44.246094 70.3125 "/>
<path fill="black" d="M 83.636719 70.625 C 83.636719 65.296875 83.636719 60.027344 83.640625 54.761719 C 83.640625 54.179688 83.683594 53.597656 83.695312 53.011719 C 83.699219 52.765625 83.789062 52.605469 84.054688 52.613281 C 86.957031 52.679688 89.894531 52.28125 92.746094 53.101562 C 95.953125 54.027344 96.902344 56.316406 96.839844 59.027344 C 96.757812 62.371094 94.804688 63.925781 92.277344 64.671875 C 92.101562 64.722656 91.9375 64.800781 91.683594 64.894531 C 93.804688 68.519531 95.902344 72.101562 98 75.6875 C 97.152344 76.113281 96.492188 75.929688 96.082031 75.214844 C 94.21875 71.988281 92.347656 68.765625 90.496094 65.535156 C 90.289062 65.175781 90.0625 65.066406 89.648438 65.082031 C 88.296875 65.125 86.941406 65.164062 85.589844 65.054688 C 85.144531 65.019531 84.976562 65.125 84.980469 65.625 C 85.011719 68.789062 84.996094 71.957031 85.007812 75.121094 C 85.011719 75.621094 84.902344 75.898438 84.320312 75.886719 C 83.804688 75.878906 83.621094 75.695312 83.628906 75.183594 C 83.648438 73.6875 83.636719 72.1875 83.636719 70.625 M 85 58.3125 C 85 59.9375 85 61.5625 84.996094 63.1875 C 84.996094 63.542969 85.003906 63.867188 85.507812 63.847656 C 87.355469 63.785156 89.214844 63.992188 91.058594 63.707031 C 92.46875 63.484375 93.777344 63.007812 94.632812 61.765625 C 96.742188 58.691406 95.140625 54.753906 91.496094 54.039062 C 89.496094 53.644531 87.472656 53.835938 85.457031 53.792969 C 85.027344 53.785156 85 54.0625 85 54.375 C 85 55.644531 85 56.917969 85 58.3125 Z M 85 58.3125 "/>
<path fill="black" d="M 73.363281 59.410156 C 75.160156 64.652344 76.941406 69.84375 78.71875 75.039062 C 78.792969 75.25 78.851562 75.46875 78.914062 75.675781 C 78.078125 76.105469 77.636719 75.945312 77.367188 75.136719 C 76.765625 73.34375 76.160156 71.550781 75.578125 69.746094 C 75.441406 69.328125 75.246094 69.152344 74.785156 69.15625 C 71.746094 69.175781 68.703125 69.179688 65.664062 69.15625 C 65.199219 69.152344 65.007812 69.328125 64.871094 69.746094 C 64.285156 71.546875 63.671875 73.335938 63.066406 75.128906 C 62.800781 75.925781 62.523438 76.042969 61.570312 75.703125 C 61.878906 74.769531 62.179688 73.828125 62.503906 72.894531 C 64.734375 66.402344 66.96875 59.910156 69.199219 53.417969 C 69.460938 52.660156 70.070312 52.367188 70.832031 52.636719 C 71.121094 52.738281 71.160156 53 71.238281 53.226562 C 71.945312 55.273438 72.644531 57.320312 73.363281 59.410156 M 66.691406 64.363281 C 66.304688 65.515625 65.917969 66.671875 65.503906 67.90625 C 68.683594 67.90625 71.746094 67.90625 74.929688 67.90625 C 73.378906 63.253906 71.839844 58.644531 70.296875 54.03125 C 70.253906 54.035156 70.210938 54.042969 70.167969 54.046875 C 69.019531 57.453125 67.875 60.863281 66.691406 64.363281 Z M 66.691406 64.363281 "/>
<path fill="black" d="M 107.761719 75.214844 C 107.8125 75.867188 107.425781 75.871094 106.992188 75.875 C 106.476562 75.882812 106.449219 75.574219 106.449219 75.179688 C 106.453125 68.472656 106.453125 61.765625 106.453125 55.058594 C 106.453125 53.753906 106.558594 53.886719 105.277344 53.882812 C 103.566406 53.882812 101.859375 53.878906 100.152344 53.882812 C 99.75 53.882812 99.402344 53.871094 99.40625 53.3125 C 99.410156 52.785156 99.589844 52.589844 100.144531 52.59375 C 104.832031 52.609375 109.515625 52.597656 114.203125 52.605469 C 114.476562 52.605469 114.875 52.457031 114.902344 52.976562 C 114.929688 53.574219 114.703125 53.875 114.152344 53.878906 C 112.320312 53.890625 110.488281 53.882812 108.65625 53.882812 C 107.765625 53.882812 107.761719 53.886719 107.761719 54.785156 C 107.761719 61.574219 107.761719 68.363281 107.761719 75.214844 Z M 107.761719 75.214844 "/>
</g>
</svg>
