<svg width="16" height="16" viewBox="0 0 16 16" fill="none" version="1.1" xmlns="http://www.w3.org/2000/svg">
<g>
<path fill="black" d="M 7.457031 8.484375 C 7.457031 8.90625 7.453125 9.320312 7.457031 9.734375 C 7.457031 9.816406 7.433594 9.835938 7.355469 9.835938 C 5.480469 9.832031 3.605469 9.832031 1.730469 9.835938 C 1.652344 9.835938 1.632812 9.8125 1.632812 9.738281 C 1.636719 8.597656 1.636719 7.457031 1.632812 6.316406 C 1.632812 6.242188 1.652344 6.214844 1.730469 6.214844 C 3.605469 6.21875 5.480469 6.21875 7.355469 6.21875 C 7.449219 6.21875 7.457031 6.226562 7.457031 6.320312 C 7.457031 7.039062 7.457031 7.757812 7.457031 8.484375 M 4.554688 6.660156 C 4.203125 6.484375 3.84375 6.457031 3.480469 6.605469 C 2.957031 6.816406 2.929688 7.425781 3.191406 7.71875 C 3.316406 7.859375 3.480469 7.941406 3.648438 8.007812 C 3.851562 8.085938 4.0625 8.132812 4.257812 8.230469 C 4.535156 8.378906 4.621094 8.726562 4.433594 8.984375 C 4.308594 9.160156 4.125 9.210938 3.921875 9.222656 C 3.644531 9.234375 3.398438 9.148438 3.183594 8.976562 C 3.128906 8.933594 3.097656 8.933594 3.054688 8.988281 C 3.027344 9.023438 3 9.0625 2.964844 9.09375 C 2.921875 9.132812 2.929688 9.160156 2.972656 9.199219 C 3.347656 9.535156 4.027344 9.621094 4.476562 9.386719 C 4.742188 9.242188 4.882812 9.011719 4.898438 8.710938 C 4.917969 8.390625 4.796875 8.136719 4.511719 7.976562 C 4.375 7.898438 4.226562 7.847656 4.078125 7.800781 C 3.914062 7.75 3.75 7.699219 3.601562 7.609375 C 3.453125 7.519531 3.386719 7.386719 3.402344 7.214844 C 3.414062 7.058594 3.488281 6.945312 3.628906 6.878906 C 3.796875 6.796875 3.976562 6.792969 4.15625 6.832031 C 4.324219 6.867188 4.46875 6.953125 4.609375 7.054688 C 4.675781 7.003906 4.722656 6.9375 4.777344 6.875 C 4.800781 6.847656 4.785156 6.824219 4.761719 6.804688 C 4.699219 6.75 4.632812 6.707031 4.554688 6.660156 M 5.53125 8.789062 C 5.53125 8.980469 5.535156 9.175781 5.53125 9.367188 C 5.527344 9.441406 5.550781 9.464844 5.625 9.464844 C 6.054688 9.460938 6.484375 9.464844 6.917969 9.464844 C 7.105469 9.464844 7.101562 9.464844 7.105469 9.273438 C 7.109375 9.199219 7.085938 9.175781 7.011719 9.175781 C 6.671875 9.179688 6.332031 9.179688 5.996094 9.179688 C 5.886719 9.179688 5.886719 9.179688 5.886719 9.074219 C 5.886719 8.796875 5.886719 8.519531 5.886719 8.246094 C 5.886719 8.128906 5.886719 8.128906 6.003906 8.128906 C 6.230469 8.128906 6.457031 8.125 6.683594 8.132812 C 6.875 8.140625 6.875 8.136719 6.878906 7.945312 C 6.878906 7.863281 6.847656 7.84375 6.773438 7.84375 C 6.511719 7.847656 6.25 7.84375 5.992188 7.84375 C 5.886719 7.84375 5.886719 7.84375 5.886719 7.742188 C 5.886719 7.484375 5.886719 7.226562 5.886719 6.96875 C 5.886719 6.855469 5.886719 6.855469 6 6.855469 C 6.316406 6.855469 6.636719 6.855469 6.953125 6.855469 C 6.988281 6.855469 7.03125 6.859375 7.039062 6.808594 C 7.050781 6.734375 7.058594 6.65625 7.066406 6.582031 C 7.03125 6.558594 7 6.566406 6.96875 6.566406 C 6.53125 6.566406 6.089844 6.566406 5.652344 6.566406 C 5.53125 6.566406 5.53125 6.566406 5.53125 6.6875 C 5.53125 7.382812 5.53125 8.078125 5.53125 8.789062 Z M 5.53125 8.789062 "/>
<path fill="black" d="M 10.453125 8.828125 C 10.453125 8.164062 10.453125 7.503906 10.457031 6.84375 C 10.457031 6.773438 10.460938 6.699219 10.460938 6.625 C 10.460938 6.597656 10.472656 6.574219 10.507812 6.578125 C 10.871094 6.585938 11.238281 6.535156 11.59375 6.636719 C 11.996094 6.753906 12.113281 7.039062 12.105469 7.378906 C 12.09375 7.796875 11.851562 7.992188 11.535156 8.082031 C 11.511719 8.089844 11.492188 8.101562 11.460938 8.113281 C 11.726562 8.566406 11.988281 9.011719 12.25 9.460938 C 12.144531 9.515625 12.0625 9.492188 12.011719 9.402344 C 11.777344 9 11.542969 8.597656 11.3125 8.191406 C 11.285156 8.148438 11.257812 8.132812 11.207031 8.136719 C 11.039062 8.140625 10.867188 8.144531 10.699219 8.132812 C 10.644531 8.128906 10.621094 8.140625 10.621094 8.203125 C 10.625 8.597656 10.625 8.996094 10.625 9.390625 C 10.625 9.453125 10.613281 9.488281 10.539062 9.484375 C 10.476562 9.484375 10.453125 9.460938 10.453125 9.398438 C 10.457031 9.210938 10.453125 9.023438 10.453125 8.828125 M 10.625 7.289062 C 10.625 7.492188 10.625 7.695312 10.625 7.898438 C 10.625 7.941406 10.625 7.984375 10.6875 7.980469 C 10.917969 7.972656 11.152344 8 11.382812 7.964844 C 11.558594 7.9375 11.722656 7.875 11.828125 7.722656 C 12.09375 7.335938 11.894531 6.84375 11.4375 6.753906 C 11.1875 6.707031 10.933594 6.730469 10.683594 6.722656 C 10.628906 6.722656 10.625 6.757812 10.625 6.796875 C 10.625 6.957031 10.625 7.113281 10.625 7.289062 Z M 10.625 7.289062 "/>
<path fill="black" d="M 9.171875 7.425781 C 9.394531 8.082031 9.617188 8.730469 9.839844 9.378906 C 9.847656 9.40625 9.855469 9.433594 9.863281 9.460938 C 9.757812 9.511719 9.703125 9.492188 9.671875 9.390625 C 9.597656 9.167969 9.519531 8.945312 9.445312 8.71875 C 9.429688 8.664062 9.40625 8.644531 9.347656 8.644531 C 8.96875 8.648438 8.589844 8.648438 8.207031 8.644531 C 8.148438 8.644531 8.125 8.664062 8.109375 8.71875 C 8.035156 8.945312 7.960938 9.167969 7.882812 9.390625 C 7.851562 9.492188 7.816406 9.503906 7.695312 9.464844 C 7.734375 9.347656 7.773438 9.226562 7.8125 9.113281 C 8.09375 8.300781 8.371094 7.488281 8.648438 6.675781 C 8.683594 6.582031 8.757812 6.546875 8.855469 6.578125 C 8.890625 6.59375 8.894531 6.625 8.90625 6.652344 C 8.992188 6.910156 9.082031 7.164062 9.171875 7.425781 M 8.335938 8.046875 C 8.289062 8.191406 8.238281 8.332031 8.1875 8.488281 C 8.585938 8.488281 8.96875 8.488281 9.367188 8.488281 C 9.171875 7.90625 8.980469 7.332031 8.789062 6.753906 C 8.78125 6.753906 8.777344 6.753906 8.769531 6.757812 C 8.628906 7.179688 8.484375 7.609375 8.335938 8.046875 Z M 8.335938 8.046875 "/>
<path fill="black" d="M 13.46875 9.402344 C 13.476562 9.484375 13.429688 9.484375 13.375 9.484375 C 13.308594 9.484375 13.304688 9.445312 13.304688 9.398438 C 13.308594 8.558594 13.308594 7.722656 13.308594 6.882812 C 13.308594 6.71875 13.320312 6.734375 13.160156 6.734375 C 12.945312 6.734375 12.730469 6.734375 12.519531 6.734375 C 12.46875 6.734375 12.425781 6.734375 12.425781 6.664062 C 12.425781 6.597656 12.449219 6.574219 12.519531 6.574219 C 13.105469 6.578125 13.691406 6.574219 14.277344 6.574219 C 14.308594 6.574219 14.359375 6.558594 14.363281 6.621094 C 14.367188 6.695312 14.339844 6.734375 14.269531 6.734375 C 14.039062 6.734375 13.8125 6.734375 13.582031 6.734375 C 13.472656 6.734375 13.46875 6.734375 13.46875 6.847656 C 13.46875 7.695312 13.46875 8.546875 13.46875 9.402344 Z M 13.46875 9.402344 "/>
</g>
</svg>
